<svg width="277" height="54" viewBox="0 0 277 54" fill="none" xmlns="http://www.w3.org/2000/svg">
<path d="M23.5078 40L12.0938 25.0469L8.27344 29.0078V40H3.79688V8.38281H8.27344V24.1562L21.6797 8.38281H26.9531L15.1406 21.7891L28.7578 40H23.5078Z" fill="#01CC2E"/>
<path d="M32.0801 13.9141H35.2617V20.7695C35.2617 21.4609 35.209 22.6152 35.1035 24.2324H35.1562C36.3867 21.8301 38.373 20.6289 41.1152 20.6289C45.2168 20.6289 47.2676 22.8613 47.2676 27.3262V40H44.0859V27.7832C44.0859 26.1895 43.7754 25.0059 43.1543 24.2324C42.5449 23.459 41.5664 23.0723 40.2188 23.0723C38.7656 23.0723 37.5703 23.6055 36.6328 24.6719C35.707 25.7266 35.2441 27.1621 35.2441 28.9785V40H32.0801V13.9141ZM69.8027 38.0488C70.1074 38.0488 70.4531 38.0078 70.8398 37.9258V39.8945C70.043 40.082 69.2285 40.1758 68.3965 40.1758C67.2246 40.1758 66.3691 39.8711 65.8301 39.2617C65.3027 38.6406 65.0039 37.6738 64.9336 36.3613H64.8281C64.0664 37.7793 63.1641 38.7988 62.1211 39.4199C61.0898 40.041 59.8125 40.3516 58.2891 40.3516C56.4375 40.3516 55.043 39.8477 54.1055 38.8398C53.168 37.832 52.6992 36.4492 52.6992 34.6914C52.6992 30.6016 55.3594 28.5273 60.6797 28.4688L64.8281 28.3984V27.3613C64.8281 25.8262 64.5176 24.7246 63.8965 24.0566C63.2754 23.377 62.2852 23.0371 60.9258 23.0371C59.543 23.0371 58.5469 23.2832 57.9375 23.7754C57.3281 24.2676 56.9648 25.0293 56.8477 26.0605L53.543 25.7617C54.082 22.3398 56.5605 20.6289 60.9785 20.6289C63.3223 20.6289 65.0801 21.1797 66.252 22.2812C67.4355 23.3711 68.0273 24.9531 68.0273 27.0273V35.2188C68.0273 36.1562 68.1504 36.8652 68.3965 37.3457C68.6426 37.8145 69.1113 38.0488 69.8027 38.0488ZM59.0977 37.9434C60.2227 37.9434 61.2188 37.6738 62.0859 37.1348C62.9531 36.5957 63.627 35.875 64.1074 34.9727C64.5879 34.0703 64.8281 33.1387 64.8281 32.1777V30.6133L61.4883 30.6836C60.1055 30.707 59.0508 30.8594 58.3242 31.1406C57.5977 31.4219 57.0293 31.8555 56.6191 32.4414C56.2207 33.0156 56.0215 33.7832 56.0215 34.7441C56.0215 35.7051 56.2793 36.4785 56.7949 37.0645C57.3223 37.6504 58.0898 37.9434 59.0977 37.9434ZM77.2031 47.4707C76.3359 47.4707 75.6094 47.4062 75.0234 47.2773V44.9043C75.4688 44.9746 75.9609 45.0098 76.5 45.0098C77.4258 45.0098 78.293 44.6641 79.1016 43.9727C79.9219 43.2812 80.6133 42.1797 81.1758 40.668L81.4922 39.8066L73.2305 20.9805H76.6055L81.2461 32.2656C82.3125 34.8906 82.8867 36.3789 82.9688 36.7305L83.6895 34.7969L89.1387 20.9805H92.4785L84.4629 40C83.4199 42.7539 82.3359 44.6875 81.2109 45.8008C80.0977 46.9141 78.7617 47.4707 77.2031 47.4707ZM112.061 23.8633C110.748 23.6406 109.506 23.5293 108.334 23.5293C106.447 23.5293 104.924 24.2383 103.764 25.6562C102.604 27.0742 102.023 28.8789 102.023 31.0703V40H98.8594V27.6777C98.8594 26.7871 98.7773 25.7383 98.6133 24.5312C98.4609 23.3242 98.2383 22.1406 97.9453 20.9805H100.951C101.42 22.5977 101.701 24.0625 101.795 25.375H101.883C102.469 24.0625 103.043 23.1016 103.605 22.4922C104.168 21.8711 104.836 21.4082 105.609 21.1035C106.383 20.7871 107.326 20.6289 108.439 20.6289C109.658 20.6289 110.865 20.7285 112.061 20.9277V23.8633ZM121.729 20.9805V33.0391C121.729 34.8672 122.016 36.1387 122.59 36.8535C123.164 37.5566 124.189 37.9082 125.666 37.9082C127.178 37.9082 128.373 37.3926 129.252 36.3613C130.131 35.3301 130.57 33.877 130.57 32.002V20.9805H133.752V35.9395C133.752 38.1543 133.787 39.5078 133.857 40H130.869C130.857 39.9414 130.846 39.7832 130.834 39.5254C130.822 39.2676 130.805 38.9746 130.781 38.6465C130.77 38.3066 130.752 37.6738 130.729 36.748H130.676C129.949 38.0605 129.105 38.9922 128.145 39.543C127.195 40.082 126.012 40.3516 124.594 40.3516C122.508 40.3516 120.979 39.8359 120.006 38.8047C119.045 37.7617 118.564 36.0449 118.564 33.6543V20.9805H121.729ZM149.871 37.5039H156.551V40H139.289V37.5039H146.707V16.4102H141.627V13.9141H149.871V37.5039ZM171.492 37.5039H178.172V40H160.91V37.5039H168.328V16.4102H163.248V13.9141H171.492V37.5039ZM199.459 30.4727C199.459 33.6719 198.721 36.1211 197.244 37.8203C195.779 39.5078 193.658 40.3516 190.881 40.3516C188.162 40.3516 186.076 39.4961 184.623 37.7852C183.182 36.0742 182.461 33.6367 182.461 30.4727C182.461 27.2031 183.199 24.748 184.676 23.1074C186.164 21.4551 188.268 20.6289 190.986 20.6289C193.846 20.6289 195.973 21.4434 197.367 23.0723C198.762 24.7012 199.459 27.168 199.459 30.4727ZM196.137 30.4727C196.137 27.9531 195.732 26.0723 194.924 24.8301C194.127 23.5879 192.832 22.9668 191.039 22.9668C189.223 22.9668 187.893 23.5996 187.049 24.8652C186.205 26.1309 185.783 28 185.783 30.4727C185.783 32.9336 186.205 34.8086 187.049 36.0977C187.893 37.375 189.158 38.0137 190.846 38.0137C192.709 38.0137 194.057 37.3867 194.889 36.1328C195.721 34.8789 196.137 32.9922 196.137 30.4727ZM221.572 27.9062C221.572 31.7852 220.67 34.7734 218.865 36.8711C217.072 38.957 214.5 40 211.148 40H204.645V16.2871H210.111C213.967 16.2871 216.838 17.2539 218.725 19.1875C220.623 21.1094 221.572 24.0156 221.572 27.9062ZM218.197 27.9062C218.197 24.8125 217.553 22.5625 216.264 21.1562C214.975 19.7383 212.93 19.0293 210.129 19.0293H208.002V37.2578H210.85C213.334 37.2578 215.18 36.4785 216.387 34.9199C217.594 33.3613 218.197 31.0234 218.197 27.9062ZM229.078 31.1582C229.078 33.291 229.547 34.9609 230.484 36.168C231.434 37.375 232.729 37.9785 234.369 37.9785C235.576 37.9785 236.631 37.7207 237.533 37.2051C238.447 36.6777 239.057 35.9629 239.361 35.0605L242.139 35.8516C241.623 37.3047 240.674 38.418 239.291 39.1914C237.92 39.9648 236.279 40.3516 234.369 40.3516C231.604 40.3516 229.477 39.4902 227.988 37.7676C226.5 36.0449 225.756 33.5781 225.756 30.3672C225.756 27.2383 226.482 24.8359 227.936 23.1602C229.4 21.4727 231.51 20.6289 234.264 20.6289C237.018 20.6289 239.104 21.4668 240.521 23.1426C241.939 24.8184 242.648 27.3496 242.648 30.7363V31.1582H229.078ZM234.299 22.9668C232.729 22.9668 231.486 23.4824 230.572 24.5137C229.658 25.5332 229.172 26.9395 229.113 28.7324H239.379C239.051 24.8887 237.357 22.9668 234.299 22.9668ZM257.607 40H253.863L246.252 20.9805H249.803L254.514 33.3555L254.812 34.2871L255.727 37.5215L256.342 35.4648L257.027 33.3906L261.879 20.9805H265.412L257.607 40Z" fill="white"/>
<circle cx="272" cy="35" r="5" fill="#01CC2E"/>
</svg>
